<svg width="12" height="12" viewBox="0 0 12 12" fill="none" xmlns="http://www.w3.org/2000/svg">
<g clip-path="url(#clip0_91_344)">
<path d="M11.0082 7.67084C11.0082 8.36288 10.4471 8.92398 9.75504 8.92398H1.57378L3.22372 7.27404L2.63305 6.68337L0.270066 9.04635C0.107 9.20952 0.107 9.47385 0.270066 9.63702L2.63305 12L3.22372 11.4093L1.57378 9.7594H9.75504C10.9079 9.75797 11.8422 8.82373 11.8436 7.67084V6H11.0082V7.67084Z" fill="#1F2633"/>
<path d="M0.983096 4.32916C0.983096 3.63702 1.54409 3.07603 2.23623 3.07603H10.4175L8.76755 4.72597L9.35822 5.31664L11.7212 2.95365C11.8843 2.79048 11.8843 2.52615 11.7212 2.36298L9.35822 0L8.76755 0.590669L10.4175 2.24061H2.23623C1.08334 2.24193 0.149 3.17628 0.147675 4.32916V6.00001H0.983096V4.32916Z" fill="#1F2633"/>
</g>
<defs>
<clipPath id="clip0_91_344">
<rect width="12" height="12" fill="white"/>
</clipPath>
</defs>
</svg>
