<svg width="11" height="11" viewBox="0 0 11 11" fill="none" xmlns="http://www.w3.org/2000/svg">
<g clip-path="url(#clip0_91_332)">
<path d="M9.34317 7.01031V9.52309H1.65697V7.01031H0.179688V10.2617C0.179688 10.6694 0.50993 11 0.91943 11H10.0807C10.4898 11 10.8205 10.6698 10.8205 10.2617V7.01031H9.34317Z" fill="#1F2633"/>
<path d="M5.36473 6.76116L3.24972 4.20545C3.24972 4.20545 2.92791 3.90163 3.27687 3.90163C3.62582 3.90163 4.46868 3.90163 4.46868 3.90163C4.46868 3.90163 4.46868 3.69724 4.46868 3.38205C4.46868 2.48342 4.46868 0.847989 4.46868 0.181266C4.46868 0.181266 4.42134 0 4.69434 0C4.96954 0 6.17493 0 6.37197 0C6.56865 0 6.56425 0.152645 6.56425 0.152645C6.56425 0.799186 6.56425 2.49113 6.56425 3.3604C6.56425 3.6422 6.56425 3.82494 6.56425 3.82494C6.56425 3.82494 7.24014 3.82494 7.66432 3.82494C8.08776 3.82494 7.7689 4.14307 7.7689 4.14307C7.7689 4.14307 5.96944 6.53182 5.71846 6.78244C5.53793 6.96407 5.36473 6.76116 5.36473 6.76116Z" fill="#1F2633"/>
</g>
<defs>
<clipPath id="clip0_91_332">
<rect width="11" height="11" fill="white"/>
</clipPath>
</defs>
</svg>
