<svg width="56" height="49" viewBox="0 0 56 49" fill="none" xmlns="http://www.w3.org/2000/svg">
<path d="M24.937 9.78362C25.541 9.78362 26.0307 9.30741 26.0307 8.72018V5.31718C26.0307 2.38529 23.5775 0 20.5621 0H5.46864C2.45323 0 0 2.38529 0 5.31718V18.0771C0 21.009 2.45323 23.3943 5.46864 23.3943H12.5442C12.2952 31.3388 9.19507 35.4688 3.08792 36.009C2.52454 36.0589 2.09328 36.5181 2.09328 37.0681V47.642C2.09328 47.9344 2.21709 48.2139 2.43562 48.4148C2.63927 48.6018 2.90822 48.7054 3.1869 48.7054C3.20735 48.7054 3.22792 48.7049 3.24837 48.7037C10.785 48.2915 16.5384 45.7696 20.3487 41.2079C24.119 36.694 26.0307 30.0983 26.0307 21.6039V17.7948C26.0307 17.2076 25.541 16.7314 24.937 16.7314C24.3329 16.7314 23.8433 17.2076 23.8433 17.7948V21.6039C23.8433 37.1986 17.4411 45.3538 4.28085 46.4987V38.0086C7.60698 37.5056 10.1798 36.0002 11.9377 33.5251C13.8024 30.8993 14.7479 27.1332 14.7479 22.3309C14.7479 21.7437 14.2583 21.2675 13.6542 21.2675H5.46864C3.65939 21.2675 2.18745 19.8363 2.18745 18.0771V5.31718C2.18745 3.55805 3.65939 2.12687 5.46864 2.12687H20.5621C22.3713 2.12687 23.8433 3.55805 23.8433 5.31718V8.72018C23.8433 9.30741 24.3329 9.78362 24.937 9.78362Z" fill="white"/>
<path d="M50.5314 0H35.438C32.4226 0 29.9694 2.38529 29.9694 5.31718V18.0771C29.9694 21.009 32.4226 23.3943 35.438 23.3943H42.5135C42.2646 31.3388 39.1644 35.4688 33.0573 36.009C32.494 36.0589 32.0626 36.5181 32.0626 37.0681V47.642C32.0626 47.9344 32.1865 48.2139 32.405 48.4148C32.6086 48.6019 32.8776 48.7054 33.1563 48.7054C33.1767 48.7054 33.1973 48.7049 33.2177 48.7037C40.7544 48.2915 46.5077 45.7696 50.318 41.2079C54.0883 36.6941 56.0001 30.0983 56.0001 21.6039V5.31718C56.0001 2.38529 53.5468 0 50.5314 0ZM53.8126 21.6039C53.8126 37.1986 47.4105 45.3538 34.2501 46.4987V38.0086C37.5763 37.5056 40.1491 36.0002 41.907 33.5251C43.7716 30.8994 44.7172 27.1333 44.7172 22.3309C44.7172 21.7437 44.2275 21.2675 43.6234 21.2675H35.438C33.6288 21.2675 32.1568 19.8363 32.1568 18.0771V5.31718C32.1568 3.55805 33.6288 2.12687 35.438 2.12687H48.5627V9.99992C48.5627 10.5872 49.0524 11.0634 49.6564 11.0634C50.2605 11.0634 50.7502 10.5872 50.7502 9.99992V2.13474C52.4577 2.2447 53.8126 3.62962 53.8126 5.31718V21.6039Z" fill="white"/>
</svg>
