<svg width="58" height="63" viewBox="0 0 58 63" fill="none" xmlns="http://www.w3.org/2000/svg">
<g clip-path="url(#clip0_91_230)">
<path d="M27.4395 15.7102C27.3567 15.7081 27.2769 15.7504 27.1939 15.7535L27.1926 15.7244C27.0714 15.7409 26.9526 15.7712 26.8383 15.8148C25.9525 15.9237 25.0806 16.2394 24.3931 16.8979L15.4236 25.4914C9.62219 26.0605 5.02457 30.7579 5.02457 36.572C5.02457 42.7753 10.2449 47.7531 16.5898 47.7531H20.8C20.9596 47.7607 21.1244 47.7662 21.2996 47.7662H37.5587C38.8793 47.7662 40.0809 47.5455 41.0957 47.0854C41.6031 46.8553 42.0737 46.5651 42.4778 46.1304C42.8819 45.6958 43.2257 45.0502 43.2257 44.3193C43.2257 43.8304 43.0484 43.4088 42.8255 43.0334H45.425C46.7456 43.0334 47.9482 42.8124 48.963 42.3522C49.4704 42.1221 49.9396 41.8337 50.3437 41.399C50.7479 40.9643 51.0917 40.3173 51.0917 39.5865C51.0917 38.9248 50.7966 38.3535 50.4434 37.9247C51.0581 37.8145 51.6334 37.6529 52.1576 37.4323C52.6882 37.2091 53.1765 36.9313 53.605 36.5037C54.0335 36.0761 54.4194 35.4158 54.4194 34.6479C54.4194 33.88 54.0335 33.22 53.605 32.7924C53.1765 32.3648 52.6882 32.087 52.1576 31.8638C51.0963 31.4174 49.8302 31.1999 48.4361 31.1999H47.5287C47.8484 30.7798 48.1144 30.2533 48.1144 29.6362C48.1144 28.9053 47.7696 28.2583 47.3654 27.8236C46.9612 27.389 46.4918 27.0991 45.9844 26.869C44.9695 26.409 43.7669 26.1882 42.4463 26.1882H27.0486L30.2954 23.0791C31.9848 21.4608 32.0457 18.7248 30.43 17.0327C29.7739 16.3456 28.9191 15.9913 28.0412 15.8421C27.8511 15.7596 27.6469 15.7148 27.4399 15.7101L27.4395 15.7102ZM27.4036 17.3148H27.404C28.0855 17.3301 28.7615 17.6068 29.2721 18.1415C30.2935 19.2112 30.2557 20.896 29.1877 21.919L23.7849 27.0943C24.6804 27.2187 25.5363 27.4567 26.337 27.7928H42.447C44.6989 27.7928 46.512 28.6148 46.512 29.6358C46.512 30.6568 44.6989 31.4789 42.447 31.4789H30.7832C31.0577 31.9 31.2995 32.3431 31.5042 32.8052H48.4365C50.8635 32.8052 52.8177 33.6269 52.8177 34.6479C52.8177 35.6689 50.8635 36.4909 48.4365 36.4909H32.2978C32.2985 36.5177 32.2991 36.5444 32.2991 36.5713C32.2991 36.9683 32.2738 37.3594 32.2255 37.7435H45.4249C47.6768 37.7435 49.4895 38.5652 49.4895 39.5862C49.4895 40.6072 47.6768 41.4292 45.4249 41.4292H30.9316C30.7086 41.7942 30.4617 42.1442 30.1919 42.476H37.5587C39.8106 42.476 41.6233 43.298 41.6233 44.319C41.6233 45.34 39.8106 46.162 37.5587 46.162H21.2993C21.141 46.162 20.9857 46.1566 20.8322 46.1488H16.5902C11.0706 46.1488 6.62705 41.8773 6.62705 36.5713C6.62705 31.4035 10.8427 27.2176 16.1619 27.0032L25.5009 18.0573C26.0348 17.5459 26.722 17.2996 27.4036 17.3148H27.4036Z" fill="white"/>
<path d="M27.404 17.3148C26.7223 17.2995 26.0348 17.5459 25.5008 18.0574L16.1618 27.003C10.8427 27.2175 6.62723 31.4035 6.62723 36.5714C6.62723 41.8774 11.0708 46.1489 16.5903 46.1489H20.8322C20.9857 46.1568 21.1411 46.1619 21.2994 46.1619H37.5586C39.8105 46.1619 41.6235 45.3398 41.6235 44.3188C41.6235 43.2979 39.8105 42.4758 37.5586 42.4758H30.1921C30.4619 42.1441 30.7089 41.7943 30.9319 41.4293H45.4251C47.677 41.4293 49.4897 40.6073 49.4897 39.5863C49.4897 38.5653 47.677 37.7435 45.4251 37.7435H32.2255C32.2738 37.3594 32.2992 36.9684 32.2992 36.5714C32.2992 36.5445 32.2985 36.5179 32.2979 36.491H48.4366C50.8636 36.491 52.8176 35.669 52.8176 34.648C52.8176 33.627 50.8636 32.8052 48.4366 32.8052H31.5041C31.2994 32.343 31.0578 31.8998 30.7833 31.4787H42.4471C44.699 31.4787 46.5119 30.6566 46.5119 29.6357C46.5119 28.6147 44.699 27.7928 42.4471 27.7928H26.3371C25.5364 27.4567 24.6803 27.2186 23.7848 27.0941L29.1879 21.9189C30.2558 20.8959 30.2934 19.2112 29.272 18.1415C28.7613 17.6067 28.0857 17.33 27.404 17.3148Z" fill="#03789B" stroke="white"/>
<path d="M44.1912 12.1342C48.9935 17.1839 49.702 24.5401 49.702 27.5884C49.702 30.6367 47.2347 33.1079 44.1912 33.1079C41.1477 33.1079 38.6804 30.6367 38.6804 27.5884C38.6804 24.5401 43.8445 15.3049 44.1912 12.1342Z" fill="#E6E1CE"/>
<path d="M33.9107 21.1024C38.713 26.1521 39.4215 33.5083 39.4215 36.5567C39.4215 39.605 36.9542 42.0761 33.9107 42.0761C30.8672 42.0761 28.3999 39.605 28.3999 36.5567C28.3999 33.5083 33.5639 24.2732 33.9107 21.1024Z" fill="#E6E1CE"/>
<path d="M23.021 22.264C22.9381 22.262 22.8583 22.3042 22.7753 22.3073L22.7739 22.2782C22.6528 22.2947 22.5339 22.3251 22.4197 22.3686C21.5338 22.4775 20.662 22.7932 19.9745 23.4518L11.005 32.0452C5.20358 32.6143 0.605957 37.3117 0.605957 43.1258C0.605957 49.3291 5.82632 54.3069 12.1712 54.3069H16.3814C16.5409 54.3146 16.7058 54.3201 16.881 54.3201H33.1401C34.4607 54.3201 35.6623 54.0993 36.6771 53.6392C37.1845 53.4091 37.655 53.1189 38.0592 52.6842C38.4633 52.2496 38.8071 51.604 38.8071 50.8731C38.8071 50.3842 38.6298 49.9626 38.4069 49.5873H41.0064C42.327 49.5873 43.5296 49.3662 44.5444 48.9061C45.0518 48.676 45.521 48.3875 45.9251 47.9528C46.3292 47.5182 46.6731 46.8712 46.6731 46.1403C46.6731 45.4787 46.378 44.9074 46.0247 44.4785C46.6395 44.3684 47.2148 44.2067 47.739 43.9862C48.2696 43.7629 48.7579 43.4851 49.1864 43.0576C49.6149 42.63 50.0008 41.9696 50.0008 41.2017C50.0008 40.4338 49.6149 39.7738 49.1864 39.3462C48.7579 38.9186 48.2696 38.6408 47.739 38.4176C46.6777 37.9712 45.4116 37.7537 44.0175 37.7537H43.1101C43.4297 37.3336 43.6958 36.8071 43.6958 36.19C43.6958 35.4591 43.351 34.8121 42.9468 34.3775C42.5426 33.9428 42.0732 33.6529 41.5658 33.4229C40.5509 32.9628 39.3483 32.742 38.0277 32.742H22.63L25.8768 29.6329C27.5662 28.0147 27.6271 25.2786 26.0114 23.5865C25.3553 22.8994 24.5005 22.5452 23.6226 22.396C23.4325 22.3135 23.2283 22.2686 23.0213 22.264L23.021 22.264ZM22.985 23.8686H22.9853C23.6669 23.8839 24.3429 24.1606 24.8535 24.6954C25.8749 25.765 25.837 27.4499 24.769 28.4728L19.3663 33.6481C20.2618 33.7725 21.1177 34.0105 21.9184 34.3467H38.0284C40.2803 34.3467 42.0933 35.1687 42.0933 36.1897C42.0933 37.2107 40.2803 38.0327 38.0284 38.0327H26.3646C26.6391 38.4538 26.8808 38.8969 27.0856 39.3591H44.0179C46.4449 39.3591 48.399 40.1808 48.399 41.2017C48.399 42.2227 46.4449 43.0448 44.0179 43.0448H27.8792C27.8798 43.0716 27.8805 43.0983 27.8805 43.1251C27.8805 43.5222 27.8551 43.9133 27.8068 44.2973H41.0063C43.2582 44.2973 45.0709 45.119 45.0709 46.14C45.0709 47.161 43.2582 47.983 41.0063 47.983H26.513C26.29 48.348 26.0431 48.698 25.7733 49.0298H33.14C35.3919 49.0298 37.2046 49.8518 37.2046 50.8728C37.2046 51.8938 35.3919 52.7158 33.14 52.7158H16.8806C16.7223 52.7158 16.5671 52.7104 16.4136 52.7027H12.1715C6.65196 52.7027 2.20841 48.4311 2.20841 43.1252C2.20841 37.9573 6.42408 33.7714 11.7432 33.557L21.0822 24.6112C21.6161 24.0998 22.3034 23.8535 22.985 23.8686L22.985 23.8686Z" fill="white"/>
<path d="M22.9854 23.8686C22.3037 23.8534 21.6162 24.0998 21.0822 24.6113L11.7432 33.5569C6.42407 33.7713 2.20862 37.9574 2.20862 43.1252C2.20862 48.4312 6.65216 52.7027 12.1717 52.7027H16.4136C16.5671 52.7106 16.7225 52.7157 16.8808 52.7157H33.14C35.3919 52.7157 37.2049 51.8937 37.2049 50.8727C37.2049 49.8517 35.3919 49.0296 33.14 49.0296H25.7735C26.0433 48.6979 26.2903 48.3482 26.5133 47.9832H41.0065C43.2584 47.9832 45.0711 47.1611 45.0711 46.1401C45.0711 45.1191 43.2584 44.2973 41.0065 44.2973H27.8069C27.8552 43.9132 27.8806 43.5223 27.8806 43.1253C27.8806 43.0984 27.8799 43.0717 27.8793 43.0448H44.018C46.445 43.0448 48.3989 42.2228 48.3989 41.2018C48.3989 40.1808 46.445 39.359 44.018 39.359H27.0855C26.8808 38.8968 26.6392 38.4536 26.3647 38.0325H38.0285C40.2804 38.0325 42.0933 37.2105 42.0933 36.1895C42.0933 35.1685 40.2804 34.3467 38.0285 34.3467H21.9186C21.1179 34.0105 20.2618 33.7724 19.3663 33.648L24.7693 28.4727C25.8372 27.4497 25.8748 25.765 24.8534 24.6954C24.3427 24.1606 23.6671 23.8838 22.9854 23.8686Z" fill="#03789B"/>
<path d="M29.4335 0.84082C34.2358 5.89055 34.9443 13.2467 34.9443 16.2951C34.9443 19.3434 32.4771 21.8145 29.4335 21.8145C26.39 21.8145 23.9227 19.3434 23.9227 16.2951C23.9227 13.2467 29.0868 4.01158 29.4335 0.84082Z" fill="#E6E1CE"/>
</g>
<defs>
<clipPath id="clip0_91_230">
<rect width="58" height="63" fill="white"/>
</clipPath>
</defs>
</svg>
