<svg width="35" height="51" viewBox="0 0 35 51" fill="none" xmlns="http://www.w3.org/2000/svg">
<path d="M31.0574 42.1311C28.2487 47.3164 23.7655 48.9729 21.875 49.1529C15.4833 48.0726 2.26783 43.8055 0.539376 35.3793C-1.18908 26.9531 8.64151 14.4037 13.7729 9.18237C20.7047 18.0047 33.8662 36.9457 31.0574 42.1311Z" fill="#E6E1CE"/>
<path d="M11.3433 32.6786L10.263 31.3283L11.0732 29.4378L10.8031 28.8976L10.263 28.6276L9.45277 27.8173V26.7371L8.91263 25.9268L7.2922 25.3867L5.67177 24.8466L5.4017 25.1166L4.86156 25.3867L3.78127 26.467L2.70099 26.7371V25.9268H3.78127L2.70099 25.1166" stroke="white" stroke-width="3"/>
<path d="M11.3437 32.6786L12.424 33.7589V34.5691L12.694 34.8392L13.2342 35.3793L13.5043 35.9194H14.0444L14.8546 36.9997L15.3948 37.2698L15.9349 37.8099H16.205H17.0152L18.0955 38.3501L17.8254 38.6202L18.0955 38.8902L18.9057 39.4304L19.4458 39.7004H19.986L20.5261 40.5107V41.3209H19.986L19.7159 41.861M19.7159 41.861L19.986 42.4012M19.7159 41.861L19.986 43.2114V44.0216L20.5261 44.8318L20.7962 45.3719L21.3363 45.9121L21.8765 46.1821V46.7223V47.2624V47.8026V48.3427V48.8829V49.1529" stroke="white" stroke-width="3"/>
<path d="M4.59125 21.3356C5.67153 21.4256 7.88612 21.7677 8.10217 22.4159C8.31823 23.064 8.73234 21.9658 8.91239 21.3356L10.2627 21.8757H11.6131L12.4233 22.4159H13.2335L13.7737 22.6859L14.0437 22.1458L14.854 21.8757L15.3941 22.1458H16.2043V21.8757L16.7444 21.3356L17.2846 20.5254V19.9852H17.8247L17.2846 21.3356L17.8247 21.8757L18.6349 22.1458L19.4452 21.8757L19.9853 22.4159L19.4452 22.6859L18.905 22.956L19.4452 23.4962L19.9853 24.0363L18.3649 24.3064V23.4962L17.2846 24.3064V25.1166V25.6567L18.3649 26.4669H18.905L19.1751 26.737L19.4452 27.5472L20.2554 28.0874L20.7955 26.737L20.2554 25.6567L20.7955 24.8465L20.2554 24.3064H21.6057L22.1459 24.8465L22.4159 25.3867H23.2262L23.7663 26.4669L24.3064 26.737L24.8466 27.5472H24.3064L25.1167 27.8173L24.3064 28.0874L22.9561 28.3574L22.1459 28.8976V29.4377L22.9561 28.8976L23.4962 29.1676L24.3064 29.4377L23.7663 29.9779H23.2262H22.4159L22.1459 30.518L21.6057 31.0581L21.3357 31.5983L21.0656 31.8684L20.7955 32.4085L19.9853 33.2187V33.7589V35.1092L19.1751 34.299L18.3649 33.7589L17.8247 34.299L17.0145 34.5691L16.2043 35.1092V36.1895L16.7444 36.9997H17.2846L17.8247 36.1895H18.6349V36.9997L18.3649 37.8099H18.905L19.4452 38.6201L20.2554 39.4304H21.0656L21.3357 38.6201H22.1459H23.2262L23.7663 39.4304L25.1167 39.9705L25.9269 40.5106L26.467 41.3209L26.1969 41.5909L27.2772 42.4011C27.5473 42.3111 28.1415 42.1851 28.3575 42.4011C28.5736 42.6172 29.3478 43.0313 29.7079 43.2114L29.1677 43.7515H29.7079L28.8977 44.8318V45.642" stroke="white" stroke-width="3"/>
<path d="M17.1696 0C16.6363 6.71041 8.04275 14.063 4.12 21.1725C4.36016 21.1967 4.58972 21.2611 4.72669 21.3563C4.81725 21.4228 4.91382 21.4407 5.02249 21.4106C5.11305 21.3864 5.27602 21.3865 5.37865 21.4167C5.48733 21.4469 5.80141 21.4951 6.07309 21.5193C6.6044 21.5736 7.11151 21.6883 7.75149 21.8996C8.21638 22.0505 8.29488 22.0988 8.29488 22.2739C8.29488 22.3403 8.32508 22.4431 8.35525 22.4914C8.40354 22.5638 8.4277 22.5698 8.46996 22.4973C8.51825 22.4189 8.48201 22.1653 8.38543 21.9238C8.34313 21.8332 8.35529 21.8212 8.46395 21.8514C8.54245 21.8755 8.6812 21.8453 8.83213 21.7669C8.96496 21.7004 9.12194 21.6461 9.17628 21.6461C9.27289 21.6461 9.27291 21.6582 9.17029 21.7669C9.09783 21.8453 9.0797 21.9117 9.11593 21.9479C9.15218 21.9842 9.29719 21.9299 9.52058 21.791C9.81642 21.6039 9.90685 21.5796 10.094 21.6098C10.2148 21.6339 10.5348 21.6581 10.8005 21.6642C11.1506 21.6763 11.368 21.7186 11.5853 21.8212C11.8087 21.9238 11.9476 21.9479 12.1287 21.9178C12.4487 21.8755 12.6479 22.0023 12.5392 22.1834C12.4305 22.3585 12.5635 22.437 12.8895 22.3948C13.282 22.3404 13.6562 22.4612 13.7769 22.6786C13.8313 22.7752 13.9098 22.8415 13.94 22.8355C14.0366 22.7992 14.0487 22.4913 13.9521 22.3464C13.8918 22.2559 13.8796 22.1774 13.9158 22.117C14.0003 21.96 13.8916 21.9358 13.4569 22.0143C13.0766 22.0807 13.0525 22.0747 12.8351 21.9238C12.7144 21.8392 12.5211 21.7367 12.4125 21.7005C12.1408 21.6039 12.2314 21.5434 12.6842 21.5133C12.8956 21.5012 13.0766 21.471 13.1008 21.4529C13.1974 21.3503 13.0223 21.2838 12.6601 21.2838C12.2374 21.2838 12.0381 21.1872 12.0381 20.9759C12.0381 20.8068 11.9718 20.6801 11.8812 20.6801C11.8329 20.6801 11.7967 20.7103 11.7967 20.7404C11.7967 20.7767 11.6215 20.8854 11.4102 20.994L11.0299 21.1811L10.7763 20.982L10.5227 20.7766L10.6797 20.6982C10.7703 20.6499 10.8306 20.5653 10.8306 20.4808C10.8306 20.2393 10.8971 20.0883 11.0299 20.028C11.1989 19.9434 12.014 20.0038 12.2314 20.1125C12.3219 20.1608 12.4246 20.2575 12.4608 20.3239C12.5031 20.4024 12.5634 20.4326 12.6237 20.4144C12.6781 20.3903 12.7626 20.4143 12.817 20.4627C12.9438 20.5774 13.3423 20.6499 13.3906 20.5654C13.4449 20.4869 13.7467 20.5895 13.8856 20.7465C14.0245 20.9034 14.0849 20.8913 14.1574 20.6921C14.2238 20.5231 14.6041 20.2333 14.6946 20.2876C14.7248 20.3057 14.731 20.3842 14.7008 20.4567C14.6283 20.6499 14.7852 21.1329 14.9724 21.2778C15.063 21.3503 15.2078 21.4046 15.2984 21.4046C15.5399 21.4046 15.5641 21.4711 15.3769 21.622C15.232 21.7367 15.2199 21.7669 15.2924 21.8514C15.4192 22.0084 15.3467 22.0144 15.0086 21.8876C14.5497 21.7125 14.0909 21.7306 14.0909 21.9238C14.0909 21.9781 14.1634 22.0083 14.2963 22.0083C14.4049 22.0083 14.5618 22.0567 14.6403 22.117C15.0206 22.4068 15.3467 22.4793 15.8056 22.3706C16.1075 22.3042 16.18 22.1895 16.023 22.0567C15.866 21.9299 15.866 21.9178 16.0834 21.7669C16.2524 21.6461 16.2766 21.646 16.3973 21.7305C16.6268 21.8935 16.7052 21.8573 16.663 21.6158C16.6267 21.4347 16.6508 21.3562 16.7957 21.157C16.9587 20.9396 16.9709 20.8913 16.9226 20.6679C16.8199 20.2332 16.9708 20.0763 17.478 20.0763C17.6712 20.0763 17.7134 20.0944 17.7134 20.197C17.7134 20.2635 17.623 20.3781 17.4901 20.4627C17.3694 20.5472 17.2365 20.6982 17.1942 20.7948C17.1217 20.9638 17.1339 20.994 17.2969 21.1993C17.3935 21.32 17.472 21.4831 17.472 21.5616C17.472 21.6341 17.5203 21.7366 17.5867 21.7789C17.6471 21.8212 17.7134 21.9177 17.7376 21.9901C17.798 22.1713 17.8583 22.1654 18.0032 21.9661C18.1904 21.7065 18.3172 21.8091 18.4802 22.3404C18.5104 22.4612 18.5709 22.5215 18.6433 22.5215C18.7942 22.5215 18.9994 22.1532 18.9571 21.9781C18.933 21.8936 18.9572 21.809 19.0176 21.7607C19.1021 21.6943 19.1565 21.7064 19.398 21.8332C19.6395 21.96 19.6757 22.0023 19.6636 22.1532C19.6575 22.2498 19.6938 22.4068 19.7421 22.5034C19.7904 22.6 19.8146 22.7026 19.7965 22.7328C19.7482 22.8113 19.3134 23.0347 19.2047 23.0347C19.1625 23.0347 19.0719 23.071 19.0055 23.1193C18.9028 23.1978 18.9028 23.2159 18.9813 23.2943C19.0296 23.3366 19.1986 23.4271 19.3556 23.4814C19.6816 23.6022 19.9956 23.9162 19.893 24.0188C19.8447 24.0672 19.7601 24.0612 19.6092 24.0068C19.4039 23.9344 19.3798 23.9403 19.2289 24.0852C19.0357 24.2724 18.921 24.2785 18.7398 24.1336C18.6191 24.037 18.6191 24.0188 18.7036 23.8498C18.8908 23.4875 18.8122 23.2762 18.4922 23.2762C18.2205 23.2762 18.1903 23.3487 18.4077 23.4453C18.4922 23.4815 18.5587 23.5358 18.5587 23.566C18.5587 23.6807 18.299 23.8438 18.0575 23.874C17.8523 23.9042 17.7919 23.9464 17.7194 24.0852C17.6711 24.1818 17.5625 24.3267 17.4719 24.3992C17.2667 24.5743 16.9285 25.2023 16.9285 25.4136C16.9285 25.5766 17.0734 25.6912 17.2787 25.6912C17.4055 25.6912 17.4719 25.8 17.4719 25.9932C17.4719 26.0596 17.5324 26.126 17.6108 26.1441C17.6833 26.1682 17.9308 26.3011 18.1602 26.4339C18.3957 26.5728 18.7579 26.7297 18.9753 26.784L19.3738 26.8867L19.404 27.2489C19.4281 27.5749 19.4582 27.6414 19.6756 27.8648C19.911 28.1003 20.1406 28.1788 20.2251 28.0399C20.2493 28.0037 20.2855 27.7621 20.3157 27.5025C20.3398 27.2308 20.4123 26.9289 20.4847 26.79C20.6477 26.4761 20.6417 26.2588 20.4847 25.9992C20.3882 25.8362 20.37 25.7395 20.4002 25.5765C20.4243 25.4558 20.4485 25.2083 20.4546 25.0211C20.4606 24.8158 20.5089 24.6167 20.5693 24.5201C20.6659 24.3752 20.7081 24.363 21.0885 24.363C21.4689 24.363 21.5292 24.3811 21.7526 24.5562C21.8854 24.6649 22.0604 24.8037 22.151 24.8641C22.2717 24.9546 22.29 24.9969 22.2417 25.0875C22.1511 25.2565 22.1691 25.4196 22.2899 25.5645C22.3805 25.6792 22.4288 25.6913 22.6582 25.6551C22.8152 25.6309 23.0024 25.5464 23.1171 25.4438C23.2257 25.3472 23.3405 25.2687 23.3767 25.2687C23.4129 25.2687 23.4854 25.4015 23.5337 25.5585C23.5881 25.7215 23.6967 25.9389 23.7752 26.0475C23.8537 26.1562 23.9502 26.3131 23.9864 26.4037C24.0347 26.5124 24.1736 26.6271 24.4211 26.7478C24.6204 26.8445 24.8015 26.9471 24.8196 26.9773C24.8317 27.0014 24.7352 27.0678 24.6024 27.1222C24.2461 27.261 24.2884 27.3456 24.6929 27.2912C24.9163 27.2671 25.0552 27.2732 25.1156 27.3214C25.2001 27.3999 25.2302 27.7139 25.1638 27.889C25.1094 28.0279 24.4695 28.2149 23.7088 28.3115C22.9662 28.4081 22.7428 28.4988 22.4107 28.8188C22.0243 29.187 22.1269 29.2413 22.6038 28.9213C22.9299 28.704 23.2076 28.6497 23.3223 28.7886C23.3706 28.855 23.3525 28.9032 23.2318 29.0058L23.0748 29.1447L23.2136 29.2896C23.286 29.3681 23.4129 29.4345 23.4914 29.4345C23.5699 29.4345 23.6303 29.4708 23.6303 29.5191C23.6303 29.6881 23.7571 29.6881 23.9986 29.5191C24.1857 29.3923 24.2522 29.3681 24.3125 29.4285C24.3669 29.4829 24.3668 29.5131 24.2944 29.5554C24.2461 29.5795 24.1254 29.664 24.0228 29.7365C23.6243 30.0142 23.1473 30.2677 23.1111 30.2134C23.093 30.1771 23.1231 30.0866 23.1774 29.9961C23.3344 29.7606 23.2137 29.7244 22.8514 29.8874C22.6763 29.9719 22.4952 30.0383 22.4469 30.0383C22.3986 30.0383 22.2899 30.1048 22.2053 30.1893C22.0846 30.3161 22.0545 30.3886 22.0726 30.5938C22.0907 30.8474 22.0906 30.8473 21.825 30.9258C21.4869 31.0224 21.3783 31.1251 21.2152 31.4994C21.0945 31.7832 21.0825 31.7952 20.9738 31.6986C20.8712 31.6081 20.8591 31.6081 20.8289 31.7168C20.8048 31.7832 20.8167 31.91 20.8529 32.0006C20.9616 32.2843 20.871 32.4714 20.3337 33.0631C20.056 33.377 19.8084 33.6851 19.7903 33.7575C19.7722 33.8239 19.8267 34.1559 19.9112 34.494C20.1044 35.2366 20.1043 35.3514 19.9534 35.3514C19.7903 35.3514 19.5971 35.0616 19.5247 34.7114C19.416 34.2163 19.2893 34.1197 18.6735 34.0593C18.2327 34.0171 18.0938 34.0895 18.1663 34.3249C18.2145 34.4698 18.0998 34.482 17.484 34.3733C17.013 34.2948 16.8259 34.325 16.5784 34.5363C16.3912 34.6933 16.3792 34.7477 16.2886 35.6291C16.2101 36.3959 16.5965 37.1023 17.0916 37.1023C17.2244 37.1023 17.4175 37.0721 17.5202 37.0359C17.6711 36.9816 17.7134 36.9332 17.7436 36.7279C17.7798 36.5287 17.8221 36.4743 17.9912 36.4018C18.0999 36.3535 18.2809 36.3174 18.3835 36.3174H18.5768L18.5346 36.6918C18.5104 36.897 18.45 37.1446 18.4017 37.2412C18.3534 37.3317 18.3172 37.4826 18.3293 37.5732C18.3474 37.7301 18.3655 37.7362 18.7398 37.7664C19.3677 37.8147 19.3979 37.851 19.3616 38.4487C19.3375 38.8411 19.3496 38.992 19.4281 39.143C19.573 39.4207 19.6998 39.4689 20.0681 39.3904C20.3579 39.3301 20.3881 39.3362 20.5813 39.4871C20.7987 39.6441 20.9133 39.6441 20.9133 39.4811C20.9133 39.3 21.0945 39.0463 21.2514 39.0101C21.342 38.986 21.4991 38.9014 21.6077 38.8169C21.8553 38.6297 21.8854 38.6358 21.8432 38.8532C21.819 38.9619 21.831 39.0343 21.8672 39.0343C21.9457 39.0343 22.1208 38.8652 22.1208 38.7867C22.1208 38.6962 22.2416 38.7264 22.4046 38.8532C22.4891 38.9196 22.6098 38.9739 22.6702 38.9739C22.7306 38.9739 22.8756 39.0222 22.9963 39.0765C23.1714 39.161 23.2377 39.1672 23.3343 39.1068C23.5396 38.974 23.751 39.0946 24.3186 39.6742C24.6325 39.9942 24.9344 40.2479 25.0189 40.266C25.1034 40.2841 25.2724 40.3142 25.3992 40.3324C25.6769 40.3746 26.1479 40.7791 26.2082 41.0206C26.2263 41.1052 26.2807 41.25 26.3229 41.3406C26.4014 41.4916 26.3895 41.5157 26.1842 41.7209C25.9125 41.9926 25.9789 42.1195 26.3049 41.9324C26.6732 41.715 26.7758 41.884 26.4558 42.1798L26.2626 42.3549H26.4316C26.5403 42.3549 26.655 42.2946 26.7576 42.1738C26.9629 41.9444 27.1139 41.9443 27.4097 42.1798C27.7237 42.4334 27.935 42.5119 28.412 42.5663C28.6656 42.5904 28.8467 42.6386 28.895 42.699C28.9373 42.7534 29.1184 42.9043 29.2995 43.0372L29.6195 43.2726L29.5954 43.6167C29.5712 43.9548 29.4565 44.1844 28.9734 44.8364C28.8346 45.0236 28.8044 45.1564 28.732 45.8507C28.7248 45.9196 28.7167 45.9867 28.708 46.0522C32.167 42.9112 34.3392 38.3781 34.3392 33.3376C34.3392 23.8551 23.9949 8.38039 17.1696 0ZM4.94396 24.7856C4.85944 24.7856 4.56967 25.172 4.44891 25.4558C4.35835 25.6671 3.88746 26.0656 3.40446 26.3493C3.05428 26.5546 3.01204 26.5969 3.02412 26.7538L3.03612 26.9289L2.92741 26.778C2.82477 26.6512 2.79468 26.6391 2.64978 26.7055C2.46262 26.79 2.43837 26.7961 2.43837 26.7236C2.43837 26.6874 2.65578 26.5485 2.9154 26.4157C3.3984 26.1621 3.5735 25.9931 3.60368 25.7395C3.60973 25.6309 3.58553 25.6007 3.46479 25.5946C3.38027 25.5886 3.24137 25.5825 3.15684 25.5765C3.07232 25.5765 2.90324 25.5041 2.78852 25.4256C2.66777 25.3471 2.47469 25.2506 2.35998 25.2143C2.2779 25.1874 2.20525 25.1464 2.14299 25.0965C0.827031 28.0345 0 30.8247 0 33.3376C0 42.8201 7.68708 50.5072 17.1696 50.5072C18.7788 50.5072 20.336 50.2853 21.813 49.8713C21.8337 49.6408 21.856 49.3466 21.8854 48.9418C21.9457 48.0905 22.0061 47.2151 22.0242 46.9917C22.0605 46.5147 22.0725 46.5329 21.348 45.9472C20.7865 45.4884 20.7442 45.4281 20.3397 44.3172C20.1827 43.8825 20.0017 43.4295 19.9413 43.3088C19.8025 43.0371 19.7964 42.9103 19.9171 42.7775C19.9896 42.699 19.9955 42.6447 19.9352 42.4877C19.8265 42.21 19.9533 41.8115 20.2975 41.3044C20.5752 40.8999 20.5813 40.8817 20.5813 40.4289C20.5813 39.7828 20.3397 39.4207 20.0681 39.6682C19.9654 39.7588 19.9172 39.7648 19.6575 39.6984C19.4885 39.6621 19.2952 39.5655 19.2167 39.481C19.1443 39.4025 19.0235 39.3361 18.9511 39.3361C18.8424 39.3361 18.8062 39.2938 18.782 39.1248C18.7277 38.7867 18.5345 38.5754 18.1481 38.4305C17.9609 38.3581 17.6047 38.1769 17.3632 38.026C16.9648 37.7785 16.8922 37.7544 16.6568 37.7846C16.4334 37.8208 16.3248 37.7844 15.8418 37.549C14.8637 37.078 14.5679 36.8366 14.5377 36.4985C14.5377 36.4502 14.5255 36.3656 14.5195 36.3053C14.5195 36.2509 14.3445 35.9733 14.1392 35.6895C13.8071 35.2427 13.3121 34.494 12.98 33.9446C12.8653 33.7514 12.7023 33.7273 12.7023 33.9024C12.7023 34.1077 13.4026 35.4359 13.6803 35.7499C13.783 35.8646 13.7709 35.9551 13.6622 35.9551C13.5535 35.9551 13.1731 35.5627 13.0886 35.3574C13.0403 35.2366 12.9136 35.0555 12.817 34.9529C12.6842 34.814 12.6419 34.7234 12.6661 34.6389C12.6902 34.5604 12.654 34.4397 12.5514 34.2948C12.4729 34.168 12.346 33.9084 12.2736 33.7152C12.1649 33.4254 12.0864 33.3227 11.7906 33.0872C11.4041 32.7914 11.0721 32.3386 11.0721 32.1092C11.0721 32.0307 11.0298 31.9522 10.9815 31.9341C10.9272 31.9099 10.8125 31.7711 10.7219 31.6141C10.5649 31.3424 10.5589 31.3122 10.577 30.5515C10.5891 30.1168 10.6133 29.6277 10.6374 29.4647C10.6796 29.1809 10.6918 29.1629 10.8488 29.1811C11.0299 29.2052 11.0601 29.1206 10.9393 28.8609C10.8609 28.6919 10.7401 28.6617 10.6857 28.8006C10.6555 28.8851 10.6314 28.8851 10.4321 28.8006C10.3114 28.7523 10.1061 28.6256 9.97327 28.5229C9.78612 28.372 9.74384 28.2996 9.77402 28.203C9.79212 28.1305 9.82843 27.9855 9.84654 27.8708C9.88278 27.6716 9.88267 27.6656 9.6955 27.6958C9.50833 27.7199 9.44201 27.6716 9.56276 27.5931C9.67747 27.5266 9.62318 27.3818 9.46621 27.3214C9.33337 27.2671 9.31513 27.2368 9.35135 27.0798C9.40569 26.8323 9.23664 26.4762 8.97702 26.3072C8.86231 26.2347 8.73561 26.1743 8.69939 26.1743C8.65715 26.1743 8.57868 26.0536 8.5183 25.9026C8.40359 25.637 8.36724 25.6068 8.16801 25.6249C8.11367 25.6309 7.92056 25.5705 7.74548 25.492C7.40134 25.3411 7.08741 25.2505 6.53195 25.1478C6.34479 25.1116 6.08513 25.0151 5.96438 24.9306C5.69873 24.7494 5.54772 24.7615 5.54772 24.9668C5.54772 25.0754 5.49943 25.1358 5.36663 25.1902C5.05872 25.3109 4.91378 25.2868 4.91378 25.1238C4.91378 25.0393 4.94397 24.9547 4.97414 24.9366C5.0647 24.8822 5.04661 24.7856 4.94396 24.7856Z" fill="#03789B"/>
</svg>
