<svg width="51" height="50" viewBox="0 0 51 50" fill="none" xmlns="http://www.w3.org/2000/svg">
<path d="M32.2307 2.78844C18.9623 2.87055 6.01263 10.8412 15.0267 20.0903C24.3338 29.6401 18.3051 37.7089 9.44272 44.5117C13.8579 48.0488 19.3423 49.9839 24.9997 50.0006C30.1647 49.9895 35.1996 48.379 39.4121 45.3903C43.7816 40.3531 44.9436 35.0952 34.5801 27.5849C6.62899 8.67896 26.1881 5.04324 37.1503 3.16323C37.1239 3.15017 37.0974 3.13716 37.071 3.1242C35.4792 2.88644 33.8526 2.77841 32.2307 2.78844ZM47.2995 13.7708C47.2916 13.7722 47.2839 13.7739 47.276 13.7753C47.3683 13.9582 47.4584 14.1422 47.5462 14.3273C47.4662 14.1408 47.3839 13.9553 47.2995 13.7708ZM49.6061 29.275C49.5858 29.3716 49.5648 29.4682 49.5433 29.5647C49.5241 29.6587 49.5044 29.7526 49.4841 29.8464C49.527 29.6564 49.5677 29.4659 49.6061 29.275ZM49.0667 31.6698C49.0251 31.8017 48.9824 31.9332 48.9386 32.0644C48.8979 32.1969 48.8561 32.329 48.8133 32.4608C48.9021 32.1986 48.9866 31.9348 49.0667 31.6698ZM48.2939 34.0024C48.2244 34.1651 48.1531 34.3272 48.0801 34.4885C48.0081 34.6616 47.9341 34.8339 47.8581 35.0054C48.0107 34.6742 48.156 34.3398 48.2939 34.0024ZM47.2952 36.2493C47.1911 36.4393 47.0846 36.628 46.9756 36.8153C46.8658 37.02 46.7532 37.2232 46.6377 37.4249C46.8674 37.039 47.0866 36.647 47.2952 36.2493ZM46.0787 38.3894C45.9357 38.5991 45.7895 38.8066 45.6402 39.0118C45.4899 39.2363 45.336 39.4584 45.1785 39.6779C45.492 39.2579 45.7922 38.8282 46.0787 38.3894ZM3.97824 38.4388C4.0378 38.5412 4.09808 38.6432 4.15908 38.7447C4.16062 38.7435 4.16212 38.7423 4.16366 38.741C4.10114 38.6407 4.03933 38.54 3.97824 38.4388ZM44.7293 40.3055C44.7274 40.3078 44.7254 40.3101 44.7235 40.3125C44.7208 40.3163 44.718 40.3202 44.7153 40.3241C44.72 40.3179 44.7246 40.3117 44.7293 40.3055ZM44.6552 40.403C44.4661 40.6293 44.273 40.8521 44.0761 41.0715C43.8693 41.3238 43.6576 41.5719 43.4412 41.8159C43.8633 41.3602 44.2682 40.8889 44.6552 40.403ZM43.1295 42.17C43.119 42.1799 43.1086 42.1899 43.0981 42.1998C43.0835 42.2168 43.0688 42.2338 43.0542 42.2508C43.0794 42.2239 43.1045 42.1969 43.1295 42.17ZM43.0353 42.2712C42.7982 42.5042 42.5566 42.7325 42.3104 42.9558C42.0617 43.2046 41.8079 43.4481 41.5489 43.6862C42.0635 43.2351 42.5594 42.763 43.0353 42.2712Z" fill="#03789B"/>
<path d="M24.9999 0C18.3694 4.67145e-05 12.0106 2.63401 7.32223 7.32245C2.63385 12.0109 -3.42459e-05 18.3698 3.33952e-10 25.0002C0.00417091 26.6215 0.166051 28.2385 0.483353 29.8285C3.61192 30.0071 3.59329 25.875 7.17771 23.6855C5.54532 22.8922 4.6427 21.4259 5.9216 17.9469C7.13828 18.9667 6.68262 21.348 8.64881 22.2278C8.71794 22.1694 8.79638 22.1244 8.88149 22.0915L9.38345 20.98L8.50792 17.8145C8.40767 17.452 8.57361 17.1189 8.87997 17.0677C9.18632 17.0165 9.51374 17.2669 9.61399 17.6294L9.94548 18.8288L11.6377 17.125C11.7463 17.0156 11.8759 16.9655 11.9981 16.9728C12.1204 16.9802 12.2353 17.045 12.3141 17.1656C12.4715 17.4068 12.4234 17.7769 12.2061 17.9957L10.2578 19.9577L10.2785 20.0325C10.3548 20.027 10.4293 20.0379 10.4984 20.0691C10.8222 20.2152 10.9038 20.7297 10.6813 21.2224L10.2117 22.2623C10.7311 22.5207 11.1727 22.9553 11.2391 23.411L13.4939 26.6326L13.3851 28.8276L14.0685 31.034L15.2483 32.7146L13.3387 33.9365L10.7176 31.7314L8.85191 31.0477C9.1006 34.9561 6.60313 36.8303 4.15927 38.7445C5.6006 40.9357 7.37775 42.8864 9.42553 44.5252C18.2976 37.7196 24.3402 29.6462 15.0269 20.0901C4.90583 9.70504 22.4745 0.931764 37.0937 3.127C33.392 1.07809 29.2308 0.00217038 24.9999 0ZM37.1523 3.16268C26.1905 5.04261 6.62769 8.6777 34.5803 27.5847C44.9438 35.0949 43.7818 40.3529 39.4123 45.39C42.4779 43.2263 45.0171 40.4003 46.8417 37.1215C48.6662 33.8427 49.7293 30.1953 49.9521 26.4496C48.6149 25.6458 46.802 24.3376 44.3632 22.3233C42.6909 19.0214 40.3415 18.6124 35.7745 19.5958C34.8347 19.4651 34.298 18.3129 33.9317 17.8173H33.9323C36.3528 17.2677 37.6529 16.7611 38.3864 15.3011C41.3141 14.1506 43.4775 12.0986 44.2913 10.8039L44.2471 14.3582C45.2359 14.1923 46.2545 13.9585 47.2997 13.7705C45.0549 9.2988 41.5201 5.60351 37.1523 3.16268Z" fill="#03789B"/>
<path d="M32.2307 2.78844C18.9623 2.87055 6.01263 10.8412 15.0267 20.0903C24.3338 29.6401 18.3051 37.7089 9.44272 44.5117C13.8579 48.0488 19.3423 49.9839 24.9997 50.0006C30.1647 49.9895 35.1996 48.379 39.4121 45.3903C43.7816 40.3531 44.9436 35.0952 34.5801 27.5849C6.62899 8.67896 26.1881 5.04324 37.1503 3.16323C37.1239 3.15017 37.0974 3.13716 37.071 3.1242C35.4792 2.88644 33.8526 2.77841 32.2307 2.78844ZM47.2995 13.7708C47.2916 13.7722 47.2839 13.7739 47.276 13.7753C47.3683 13.9582 47.4584 14.1422 47.5462 14.3273C47.4662 14.1408 47.3839 13.9553 47.2995 13.7708ZM49.6061 29.275C49.5858 29.3716 49.5648 29.4682 49.5433 29.5647C49.5241 29.6587 49.5044 29.7526 49.4841 29.8464C49.527 29.6564 49.5677 29.4659 49.6061 29.275ZM49.0667 31.6698C49.0251 31.8017 48.9824 31.9332 48.9386 32.0644C48.8979 32.1969 48.8561 32.329 48.8133 32.4608C48.9021 32.1986 48.9866 31.9348 49.0667 31.6698ZM48.2939 34.0024C48.2244 34.1651 48.1531 34.3272 48.0801 34.4885C48.0081 34.6616 47.9341 34.8339 47.8581 35.0054C48.0107 34.6742 48.156 34.3398 48.2939 34.0024ZM47.2952 36.2493C47.1911 36.4393 47.0846 36.628 46.9756 36.8153C46.8658 37.02 46.7532 37.2232 46.6377 37.4249C46.8674 37.039 47.0866 36.647 47.2952 36.2493ZM46.0787 38.3894C45.9357 38.5991 45.7895 38.8066 45.6402 39.0118C45.4899 39.2363 45.336 39.4584 45.1785 39.6779C45.492 39.2579 45.7922 38.8282 46.0787 38.3894ZM3.97824 38.4388C4.0378 38.5412 4.09808 38.6432 4.15908 38.7447C4.16062 38.7435 4.16212 38.7423 4.16366 38.741C4.10114 38.6407 4.03933 38.54 3.97824 38.4388ZM44.7293 40.3055C44.7274 40.3078 44.7254 40.3101 44.7235 40.3125C44.7208 40.3163 44.718 40.3202 44.7153 40.3241C44.72 40.3179 44.7246 40.3117 44.7293 40.3055ZM44.6552 40.403C44.4661 40.6293 44.273 40.8521 44.0761 41.0715C43.8693 41.3238 43.6576 41.5719 43.4412 41.8159C43.8633 41.3602 44.2682 40.8889 44.6552 40.403ZM43.1295 42.17C43.119 42.1799 43.1086 42.1899 43.0981 42.1998C43.0835 42.2168 43.0688 42.2338 43.0542 42.2508C43.0794 42.2239 43.1045 42.1969 43.1295 42.17ZM43.0353 42.2712C42.7982 42.5042 42.5566 42.7325 42.3104 42.9558C42.0617 43.2046 41.8079 43.4481 41.5489 43.6862C42.0635 43.2351 42.5594 42.763 43.0353 42.2712Z" fill="#E6E1CE"/>
<path d="M24.9999 0C18.3694 4.67145e-05 12.0106 2.63401 7.32223 7.32245C2.63385 12.0109 -3.42459e-05 18.3698 3.33952e-10 25.0002C0.00417091 26.6215 0.166051 28.2385 0.483353 29.8285C3.61192 30.0071 3.59329 25.875 7.17771 23.6855C5.54532 22.8922 4.6427 21.4259 5.9216 17.9469C7.13828 18.9667 6.68262 21.348 8.64881 22.2278C8.71794 22.1694 8.79638 22.1244 8.88149 22.0915L9.38345 20.98L8.50792 17.8145C8.40767 17.452 8.57361 17.1189 8.87997 17.0677C9.18632 17.0165 9.51374 17.2669 9.61399 17.6294L9.94548 18.8288L11.6377 17.125C11.7463 17.0156 11.8759 16.9655 11.9981 16.9728C12.1204 16.9802 12.2353 17.045 12.3141 17.1656C12.4715 17.4068 12.4234 17.7769 12.2061 17.9957L10.2578 19.9577L10.2785 20.0325C10.3548 20.027 10.4293 20.0379 10.4984 20.0691C10.8222 20.2152 10.9038 20.7297 10.6813 21.2224L10.2117 22.2623C10.7311 22.5207 11.1727 22.9553 11.2391 23.411L13.4939 26.6326L13.3851 28.8276L14.0685 31.034L15.2483 32.7146L13.3387 33.9365L10.7176 31.7314L8.85191 31.0477C9.1006 34.9561 6.60313 36.8303 4.15927 38.7445C5.6006 40.9357 7.37775 42.8864 9.42553 44.5252C18.2976 37.7196 24.3402 29.6462 15.0269 20.0901C4.90583 9.70504 22.4745 0.931764 37.0937 3.127C33.392 1.07809 29.2308 0.00217038 24.9999 0ZM37.1523 3.16268C26.1905 5.04261 6.62769 8.6777 34.5803 27.5847C44.9438 35.0949 43.7818 40.3529 39.4123 45.39C42.4779 43.2263 45.0171 40.4003 46.8417 37.1215C48.6662 33.8427 49.7293 30.1953 49.9521 26.4496C48.6149 25.6458 46.802 24.3376 44.3632 22.3233C42.6909 19.0214 40.3415 18.6124 35.7745 19.5958C34.8347 19.4651 34.298 18.3129 33.9317 17.8173H33.9323C36.3528 17.2677 37.6529 16.7611 38.3864 15.3011C41.3141 14.1506 43.4775 12.0986 44.2913 10.8039L44.2471 14.3582C45.2359 14.1923 46.2545 13.9585 47.2997 13.7705C45.0549 9.2988 41.5201 5.60351 37.1523 3.16268Z" fill="#03789B"/>
<path d="M0.590393 29.8014C1.27887 29.8998 3.0099 29.4473 4.42619 26.8508C5.84249 24.2543 6.98339 23.8018 7.37681 23.9002C6.09821 23.5068 4.01311 21.7757 5.9015 17.999C6.58998 19.7693 8.14397 23.074 8.85211 22.1298L9.44224 20.9496L8.55705 17.999C8.55705 17.6055 8.7931 16.9367 9.7373 17.4088L10.0324 18.8842L11.5077 17.4088C11.9011 17.2121 12.5699 17.1138 12.0978 18.294L10.3274 20.0644C10.8192 20.2611 11.5077 21.0086 10.3274 22.4249C10.7208 22.6216 11.5077 23.192 11.5077 23.9002L13.5731 26.5558L13.278 28.9162L13.8682 30.0965L14.1632 31.2767L15.3435 32.752L13.278 33.9323L10.9175 31.8669L8.85211 30.9817C8.75376 32.752 7.67187 36.7649 4.13113 38.6533" stroke="#03789B"/>
<path d="M47.2093 13.8681L44.2587 14.4582V10.9175C42.9801 12.2944 40.0098 15.1074 38.3575 15.3434C37.669 16.2286 35.879 17.9399 34.2266 17.7039C34.2266 18.294 34.5807 19.4743 35.997 19.4743C38.4558 18.9825 43.5506 18.8841 44.2587 22.4249L49.8649 26.5557" stroke="#03789B"/>
</svg>
