<svg width="27" height="48" viewBox="0 0 27 48" fill="none" xmlns="http://www.w3.org/2000/svg">
<path d="M13.5 0.154785C11.2906 8.40032 -1.07373e-06 26.7162 0 34.172C4.02649e-07 37.2867 1.05538 40.1544 2.82719 42.4387L13.9231 28.6681L7.59187 28.6933L19.886 14.3463C16.9464 8.06081 14.0838 2.3335 13.5 0.154785ZM19.897 14.3704L12.9592 26.1054L20.7241 26.2032L2.83034 42.4431C5.30007 45.6245 9.1607 47.6723 13.5 47.6723C20.9559 47.6723 27 41.6279 27 34.172C27 30.1228 23.3958 21.8528 19.897 14.3704Z" fill="#03789B"/>
<path d="M2.82691 42.439V42.439ZM2.82691 42.439L2.8306 42.4431L2.82691 42.439ZM20.796 13.9311L20.1458 12.5067L19.1269 13.6956L6.83279 28.0426L5.41085 29.702L7.5961 29.6933L11.8266 29.6765L2.04878 41.8112L1.57531 42.3988L2.01048 43.0153L2.01362 43.0198L2.66554 43.9434L3.50266 43.1836L21.3964 26.9437L23.2788 25.2353L20.7369 25.2033L14.6995 25.1273L20.7581 14.8794L21.0237 14.43L20.807 13.9552L20.796 13.9311Z" fill="#E6E1CE" stroke="white" stroke-width="2"/>
</svg>
