<svg width="52" height="51" viewBox="0 0 52 51" fill="none" xmlns="http://www.w3.org/2000/svg">
<path d="M0 50.9582C0 45.6866 0 40.3942 0 35.1017C1.27605 35.1017 2.53117 35.1017 3.86998 35.1017C3.86998 35.5619 3.91181 35.8757 3.86998 36.1895C3.7863 36.8589 4.01641 37.1099 4.72765 37.089C6.61034 37.0472 8.49303 37.0681 10.3757 37.0681C13.1998 37.0681 16.0238 37.0472 18.8478 37.089C19.4754 37.089 19.6846 36.9007 19.6427 36.2941C19.6009 35.6874 19.6218 35.1017 19.6427 34.4951C19.6637 34.0139 19.5172 33.742 19.0361 33.5537C16.4631 32.5287 14.2248 30.9807 12.4048 28.8679C8.51395 24.3495 7.2379 19.0779 8.59762 13.4089C10.2502 6.54758 14.7477 2.17555 21.6928 0.481132C22.3622 0.313782 23.0316 0.146431 23.701 0C24.9143 0 26.1066 0 27.3199 0C27.4454 0.0627563 27.571 0.16735 27.7174 0.188269C32.1103 0.753076 35.792 2.69852 38.6788 6.04553C42.5697 10.564 43.6993 15.8146 42.4024 21.5254C41.2309 26.7133 38.1349 30.646 33.3027 32.9052C31.5246 33.742 31.169 34.7252 31.3573 36.3778C31.42 36.9007 31.5455 37.1099 32.0894 37.1099C33.5537 37.089 35.018 37.1099 36.4824 37.1099C39.7457 37.1099 43.009 37.089 46.2933 37.1308C47.0045 37.1308 47.2346 36.9216 47.1509 36.2313C47.1091 35.9175 47.1509 35.5828 47.1509 35.1436C48.5316 35.1436 49.7867 35.1436 51.0209 35.1436C51.0209 40.436 51.0209 45.7075 51.0209 51C49.7449 51 48.4897 51 47.1928 51C47.1719 50.6235 47.1509 50.4143 47.13 50.2051C47.1091 48.7826 47.2974 48.9081 45.8121 48.9081C32.2777 48.9081 18.7432 48.9081 5.20878 48.9081C4.99959 48.9081 4.7904 48.929 4.58121 48.9081C4.07916 48.8663 3.84906 49.0545 3.89089 49.5775C3.91181 49.9959 3.89089 50.4352 3.89089 51C2.48934 50.9582 1.25513 50.9582 0 50.9582ZM38.9508 17.4253C39.0345 9.99918 32.8425 3.84906 25.4582 3.91181C17.6764 3.97457 12.2375 10.2711 12.0283 16.8605C11.7773 24.8097 18.1993 30.918 25.5209 30.8552C33.3027 30.8134 39.0135 24.4331 38.9508 17.4253ZM23.429 40.8753C23.0316 40.8753 22.7596 40.8753 22.4668 40.8753C19.8519 40.8753 17.2371 40.8753 14.6222 40.8753C11.3798 40.8753 8.13741 40.8962 4.895 40.8544C4.14192 40.8544 3.7863 41.0217 3.86998 41.8376C3.93273 42.5279 3.89089 43.2391 3.89089 43.9504C3.89089 45.0172 3.89089 45.0172 4.93683 45.0172C18.6596 45.0172 32.3823 45.0172 46.105 45.0172C46.2514 45.0172 46.4188 44.9963 46.5652 45.0172C46.9836 45.0591 47.1091 44.8499 47.1091 44.4524C47.0882 43.5947 47.1091 42.7371 47.1091 41.8585C47.1091 40.8335 47.1091 40.8335 46.0632 40.8335C40.2268 40.8335 34.4114 40.8335 28.5751 40.8335C28.2613 40.8335 27.9684 40.8335 27.55 40.8335C27.55 38.6997 27.55 36.6915 27.55 34.6624C26.1276 34.6624 24.8306 34.6624 23.429 34.6624C23.429 36.7543 23.429 38.7625 23.429 40.8753Z" fill="#03789B"/>
<path d="M38.9513 17.4254C39.014 24.4332 33.3032 30.7925 25.5423 30.8553C18.2207 30.918 11.7777 24.7888 12.0497 16.8606C12.2589 10.2712 17.6978 3.97461 25.4796 3.91185C32.843 3.8491 39.0349 9.99922 38.9513 17.4254ZM25.6051 15.5009C25.6051 16.6932 25.5841 17.6973 25.626 18.7224C25.626 18.9106 25.9398 19.2244 26.1071 19.2244C28.8266 19.2662 31.546 19.2662 34.2654 19.2244C34.4537 19.2244 34.7884 18.8897 34.8093 18.6805C34.893 18.1157 34.8303 17.53 34.8512 16.9652C34.8721 14.434 33.8471 12.3212 32.0899 10.6268C27.8852 6.54762 21.1284 7.23794 17.7396 12.0074C16.6309 13.5763 16.0243 15.3126 16.1707 17.279C17.4677 17.279 18.7228 17.279 19.957 17.279C20.2708 13.5973 23.2622 11.6727 25.9816 11.8819C27.9689 12.0493 30.3745 13.8692 30.4373 15.5009C28.8684 15.5009 27.2995 15.5009 25.6051 15.5009Z" fill="#E6E1CE"/>
<path d="M23.4293 40.8753C23.4293 38.7625 23.4293 36.7543 23.4293 34.7042C24.8518 34.7042 26.1279 34.7042 27.5503 34.7042C27.5503 36.7124 27.5503 38.7415 27.5503 40.8753C27.9687 40.8753 28.2825 40.8753 28.5754 40.8753C34.4117 40.8753 40.2271 40.8753 46.0635 40.8753C47.1094 40.8753 47.1094 40.8753 47.1094 41.9003C47.1094 42.758 47.0885 43.6156 47.1094 44.4942C47.1094 44.8917 46.9839 45.0799 46.5655 45.059C46.4191 45.0381 46.2517 45.059 46.1053 45.059C32.3826 45.059 18.6598 45.059 4.93712 45.059C3.89119 45.059 3.89119 45.059 3.89119 43.9922C3.89119 43.2809 3.95394 42.5697 3.87027 41.8794C3.78659 41.0426 4.14221 40.8753 4.89529 40.8962C8.1377 40.938 11.3801 40.9171 14.6225 40.9171C17.2374 40.9171 19.8522 40.9171 22.4671 40.9171C22.739 40.8753 23.0319 40.8753 23.4293 40.8753Z" fill="white"/>
<path d="M25.6047 15.5008C27.2782 15.5008 28.868 15.5008 30.4369 15.5008C30.3742 13.8901 27.9685 12.0492 25.9812 11.8819C23.2409 11.6727 20.2495 13.5763 19.9566 17.2789C18.7224 17.2789 17.4673 17.2789 16.1703 17.2789C16.0239 15.3125 16.6515 13.5763 17.7393 12.0074C21.1072 7.21696 27.8849 6.54756 32.0895 10.6267C33.8467 12.3211 34.8717 14.4549 34.8508 16.9651C34.8508 17.5299 34.8926 18.1156 34.809 18.6805C34.7881 18.8896 34.4534 19.2243 34.2651 19.2243C31.5456 19.2662 28.8262 19.2662 26.1068 19.2243C25.9394 19.2243 25.6256 18.9106 25.6256 18.7223C25.5838 17.7182 25.6047 16.6932 25.6047 15.5008Z" fill="#03789B"/>
</svg>
