<svg width="62" height="53" viewBox="0 0 62 53" fill="none" xmlns="http://www.w3.org/2000/svg">
<path d="M20.9375 34.736C20.6584 34.7364 20.3885 34.816 20.1754 34.9605C18.8106 35.8866 17.5644 36.6778 16.4518 36.8476C15.3391 37.0174 14.1011 36.7814 12.1187 35.0446C12.075 35.0057 12.0273 34.9697 11.9761 34.9371V37.5245C13.7007 38.5958 15.3736 38.9457 16.8937 38.7137C18.4983 38.4689 19.7277 37.709 20.8689 36.9451C21.9328 37.8158 23.1107 38.6402 24.7366 38.8704C26.5344 39.125 28.5327 38.4975 30.7191 36.931C32.2272 38.0642 33.8355 38.8764 35.6226 38.9242C37.4738 38.9738 39.2762 38.2471 40.973 36.9292C42.5509 37.9905 44.2236 38.7403 46.0385 38.782C47.4829 38.8151 48.9163 38.4484 50.3047 37.7195V35.3064C48.7473 36.4808 47.3818 36.9119 46.106 36.8826C44.7308 36.8511 43.2704 36.2579 41.6993 35.0107C41.5848 34.9198 41.4483 34.8487 41.2983 34.8016C41.1483 34.7545 40.9879 34.7324 40.8269 34.7368C40.6659 34.7412 40.5077 34.7718 40.362 34.8269C40.2163 34.882 40.0861 34.9604 39.9794 35.0573C38.3376 36.5492 36.9516 37.0594 35.702 37.0259C34.4524 36.9925 33.0732 36.3776 31.5729 35.049C31.4649 34.9532 31.3335 34.8762 31.1871 34.8225C31.0406 34.7689 30.882 34.7397 30.721 34.7369C30.56 34.7341 30.4 34.7577 30.2508 34.8062C30.1015 34.8547 29.9662 34.9271 29.853 35.019C27.6106 36.843 26.206 37.1491 25.1474 36.9992C24.0889 36.8493 22.9938 36.0796 21.8137 35.0446C21.7025 34.9471 21.5671 34.8693 21.4162 34.8161C21.2653 34.763 21.1023 34.7357 20.9375 34.736V34.736ZM20.9375 40.0004C20.6584 40.001 20.3884 40.0807 20.1754 40.2254C18.8106 41.1514 17.5644 41.9419 16.4518 42.1117C15.3391 42.2815 14.1011 42.0459 12.1187 40.3091C12.075 40.2702 12.0273 40.2342 11.9761 40.2015V42.7894C13.7007 43.8604 15.3736 44.2102 16.8937 43.9782C18.4984 43.7333 19.7276 42.9732 20.8689 42.2092C21.9328 43.0799 23.1107 43.9039 24.7366 44.1342C26.5345 44.3888 28.5325 43.7618 30.7191 42.1951C32.2272 43.3283 33.8355 44.1412 35.6226 44.1891C37.4738 44.2386 39.2762 43.5112 40.973 42.1933C42.5509 43.2546 44.2236 44.0048 46.0385 44.0464C47.4829 44.0796 48.9163 43.7125 50.3047 42.9836V40.5701C48.7473 41.7445 47.3818 42.176 46.106 42.1467C44.7308 42.1152 43.2704 41.522 41.6993 40.2748C41.5848 40.1839 41.4483 40.1128 41.2983 40.0657C41.1483 40.0186 40.9879 39.9965 40.8269 40.0009C40.6659 40.0053 40.5077 40.0359 40.362 40.091C40.2163 40.1461 40.0861 40.2245 39.9794 40.3214C38.3376 41.8133 36.9516 42.3236 35.702 42.2901C34.4524 42.2566 33.0732 41.6414 31.5729 40.3127C31.4648 40.217 31.3334 40.14 31.1869 40.0864C31.0404 40.0328 30.8818 40.0038 30.7208 40.0011C30.5599 39.9983 30.3999 40.022 30.2507 40.0705C30.1014 40.1191 29.9661 40.1915 29.853 40.2835C27.6106 42.1074 26.206 42.4143 25.1474 42.2644C24.0889 42.1145 22.9938 41.344 21.8137 40.3091C21.7025 40.2116 21.5671 40.1337 21.4162 40.0806C21.2653 40.0274 21.1023 40.0001 20.9375 40.0004V40.0004ZM20.9375 45.2649C20.6584 45.2655 20.3884 45.3451 20.1754 45.4898C18.8106 46.4159 17.5644 47.206 16.4518 47.3758C15.3391 47.5456 14.1011 47.31 12.1187 45.5732C12.075 45.5343 12.0273 45.4983 11.9761 45.4656V48.0535C13.7007 49.1245 15.3736 49.4739 16.8937 49.242C18.4984 48.9971 19.7276 48.2373 20.8689 47.4733C21.9328 48.344 23.1107 49.1691 24.7366 49.3994C26.5344 49.654 28.5327 49.0268 30.7191 47.4603C32.2271 48.5933 33.8357 49.4057 35.6226 49.4535C37.4738 49.5031 39.2762 48.7754 40.973 47.4574C42.5509 48.5187 44.2236 49.2686 46.0385 49.3102C47.4829 49.3433 48.9163 48.977 50.3047 48.2484V45.8346C48.7473 47.009 47.3818 47.4401 46.106 47.4108C44.7308 47.3793 43.2704 46.7872 41.6993 45.54C41.5848 45.4491 41.4484 45.3779 41.2984 45.3308C41.1484 45.2837 40.988 45.2616 40.827 45.2659C40.666 45.2702 40.5078 45.3009 40.362 45.356C40.2163 45.411 40.0861 45.4894 39.9794 45.5862C38.3376 47.0781 36.9516 47.5877 35.702 47.5542C34.4524 47.5207 33.0732 46.9058 31.5729 45.5772C31.4648 45.4815 31.3335 45.4044 31.187 45.3508C31.0405 45.2972 30.8819 45.2681 30.7209 45.2653C30.5599 45.2626 30.4 45.2862 30.2507 45.3347C30.1015 45.3832 29.9662 45.4557 29.853 45.5476C27.6106 47.3715 26.206 47.6784 25.1474 47.5285C24.0889 47.3786 22.9938 46.6082 21.8137 45.5732C21.7024 45.4758 21.567 45.398 21.4162 45.3449C21.2653 45.2918 21.1023 45.2646 20.9375 45.2649Z" fill="white" stroke="white" stroke-width="0.982" stroke-linecap="round"/>
<path d="M31.1907 1.00084C30.8263 0.988707 30.4744 1.10815 30.2314 1.32635L15.7715 14.3102L1.31191 27.2938C0.611017 27.9237 1.16805 28.9223 2.22053 28.9226H11.9751V34.9367C12.0265 34.9694 12.0743 35.0056 12.1182 35.0447C14.1006 36.7815 15.3387 37.0174 16.4513 36.8476C17.564 36.6778 18.8102 35.8865 20.1749 34.9605C20.4087 34.8019 20.7099 34.7221 21.0153 34.7378C21.3208 34.7535 21.6068 34.8635 21.8134 35.0447C22.9935 36.0797 24.0887 36.8494 25.1472 36.9993C26.2058 37.1492 27.6102 36.8431 29.8526 35.0192C29.9658 34.9272 30.1011 34.8548 30.2503 34.8063C30.3996 34.7577 30.5596 34.7341 30.7206 34.7369C30.8816 34.7397 31.0402 34.7688 31.1867 34.8224C31.3332 34.8761 31.4645 34.9531 31.5726 35.0488C33.0729 36.3775 34.452 36.9925 35.7016 37.0259C36.9512 37.0594 38.3372 36.5493 39.9791 35.0574C40.0858 34.9605 40.2159 34.8821 40.3616 34.8269C40.5074 34.7718 40.6656 34.7411 40.8266 34.7368C40.9876 34.7324 41.148 34.7544 41.2981 34.8015C41.4481 34.8486 41.5846 34.9198 41.6992 35.0107C43.2702 36.2579 44.7305 36.8512 46.1057 36.8827C47.3816 36.912 48.7473 36.4806 50.305 35.3059V28.9226H60.0593C61.1117 28.9223 61.6688 27.9238 60.9679 27.2938L46.5083 14.3102L32.0487 1.32635C31.8293 1.12927 31.5198 1.01186 31.1907 1.00084ZM40.9727 36.9291C39.2759 38.247 37.4735 38.9738 35.6222 38.9242C33.8351 38.8764 32.2268 38.0643 30.7187 36.9311C28.5323 38.4976 26.5341 39.1249 24.7362 38.8703C23.1103 38.6401 21.9324 37.8158 20.8685 36.9451C19.7273 37.709 18.4979 38.4689 16.8933 38.7138C15.373 38.9458 13.6999 38.5958 11.9751 37.5241V40.2012C12.0264 40.2339 12.0743 40.2699 12.1182 40.309C14.1006 42.0458 15.3387 42.2816 16.4513 42.1118C17.564 41.942 18.8102 41.1516 20.1749 40.2255C20.4085 40.0668 20.7097 39.9869 21.0151 40.0024C21.3206 40.018 21.6067 40.1279 21.8134 40.309C22.9935 41.3439 24.0887 42.1144 25.1472 42.2643C26.2058 42.4142 27.6102 42.1073 29.8526 40.2834C29.9657 40.1915 30.1011 40.119 30.2503 40.0705C30.3995 40.0219 30.5595 39.9983 30.7205 40.001C30.8815 40.0038 31.0401 40.0329 31.1866 40.0865C31.3332 40.1401 31.4645 40.2171 31.5726 40.3128C33.0729 41.6415 34.452 42.2565 35.7016 42.2899C36.9512 42.3235 38.3372 41.8133 39.9791 40.3214C40.0858 40.2245 40.216 40.1461 40.3617 40.091C40.5074 40.0359 40.6657 40.0053 40.8267 40.0009C40.9877 39.9966 41.1481 40.0186 41.2981 40.0658C41.4482 40.1129 41.5846 40.1841 41.6992 40.275C43.2702 41.5221 44.7305 42.1152 46.1057 42.1468C47.3816 42.176 48.7473 41.7447 50.305 40.5699V37.7191C48.9163 38.4482 47.4828 38.8153 46.0382 38.7821C44.2233 38.7405 42.5506 37.9903 40.9727 36.9291ZM40.9727 42.1933C39.2759 43.5112 37.4735 44.2388 35.6222 44.1892C33.8351 44.1414 32.2268 43.3283 30.7187 42.1951C28.5321 43.7618 26.5341 44.3889 24.7362 44.1343C23.1103 43.9041 21.9324 43.0801 20.8685 42.2094C19.7272 42.9733 18.498 43.7332 16.8933 43.9781C15.373 44.2101 13.6999 43.8603 11.9751 42.7889V45.4654C12.0264 45.4981 12.0743 45.5342 12.1182 45.5733C14.1006 47.31 15.3387 47.5456 16.4513 47.3758C17.564 47.206 18.8102 46.4158 20.1749 45.4898C20.4085 45.3311 20.7097 45.2511 21.0151 45.2667C21.3206 45.2823 21.6067 45.3921 21.8134 45.5733C22.9935 46.6082 24.0887 47.3786 25.1472 47.5285C26.2058 47.6784 27.6102 47.3716 29.8526 45.5477C29.9657 45.4557 30.1011 45.3833 30.2503 45.3347C30.3995 45.2861 30.5595 45.2625 30.7205 45.2653C30.8815 45.268 31.0401 45.2971 31.1866 45.3507C31.3332 45.4043 31.4645 45.4814 31.5726 45.5771C33.0729 46.9057 34.452 47.5207 35.7016 47.5542C36.9512 47.5877 38.3372 47.0783 39.9791 45.5864C40.0858 45.4895 40.216 45.4111 40.3617 45.356C40.5074 45.3009 40.6657 45.2703 40.8267 45.2659C40.9877 45.2616 41.1481 45.2836 41.2981 45.3308C41.4482 45.3779 41.5846 45.4491 41.6992 45.54C43.2702 46.7871 44.7305 47.3795 46.1057 47.411C47.3816 47.4403 48.7473 47.0089 50.305 45.8341V42.9833C48.9163 43.7125 47.4828 44.0795 46.0382 44.0464C44.2233 44.0047 42.5506 43.2546 40.9727 42.1933ZM40.9727 47.4573C39.2759 48.7753 37.4735 49.5031 35.6222 49.4535C33.8354 49.4056 32.2267 48.5933 30.7187 47.4603C28.5323 49.0269 26.5341 49.6539 24.7362 49.3993C23.1103 49.1691 21.9324 48.3441 20.8685 47.4734C19.7272 48.2374 18.498 48.9972 16.8933 49.2421C15.373 49.4741 13.6999 49.1245 11.9751 48.0532V51.0216C11.9752 51.5614 12.5206 51.999 13.1935 51.9991H49.0866C49.7595 51.999 50.3049 51.5614 50.305 51.0216V48.248C48.9163 48.9769 47.4828 49.3434 46.0382 49.3103C44.2233 49.2687 42.5506 48.5186 40.9727 47.4573Z" fill="#03789B" stroke="#E6E1CE" stroke-width="0.982" stroke-linecap="round" stroke-linejoin="round"/>
</svg>
