<svg width="47" height="48" viewBox="0 0 47 48" fill="none" xmlns="http://www.w3.org/2000/svg">
<path d="M24.1628 0L20.5165 3.52077L16.0165 1.18698L13.7943 5.74237L8.76782 5.08832L8.23808 10.1295L3.29064 11.2336L4.51714 16.1523L0.246065 18.882L3.08027 23.0842L0 27.1099L4.10087 30.0894L2.58368 34.9259L7.45589 36.3233L7.68475 41.3874L12.7412 41.0342L14.6874 45.7139L19.318 43.6529L22.7483 47.3847L26.3946 43.864L30.8939 46.1977L33.1168 41.6424L38.1426 42.2964L38.673 37.2553L43.6198 36.1512L42.3939 31.233L46.665 28.5027L43.8308 24.3005L46.9104 20.2749L42.8102 17.2953L44.3274 12.4588L39.4552 11.0615L39.2263 5.99736L34.1699 6.35115L32.223 1.67082L27.5924 3.73241L24.1628 0ZM23.4552 4.88305C26.0465 4.88305 28.6124 5.36958 31.0065 6.31484C33.4005 7.26009 35.5758 8.64558 37.4081 10.3922C39.2405 12.1388 40.6939 14.2123 41.6856 16.4944C42.6772 18.7764 43.1876 21.2223 43.1876 23.6924C43.1876 26.1624 42.6772 28.6083 41.6856 30.8904C40.6939 33.1724 39.2405 35.2459 37.4081 36.9925C35.5758 38.7391 33.4005 40.1246 31.0065 41.0699C28.6124 42.0151 26.0465 42.5017 23.4552 42.5017C20.8639 42.5017 18.298 42.0151 15.904 41.0699C13.5099 40.1246 11.3346 38.7391 9.5023 36.9925C7.66998 35.2459 6.2165 33.1724 5.22486 30.8904C4.23322 28.6083 3.72284 26.1624 3.72285 23.6924C3.72284 21.2223 4.23322 18.7764 5.22486 16.4944C6.2165 14.2123 7.66998 12.1388 9.5023 10.3922C11.3346 8.64558 13.5099 7.26009 15.904 6.31484C18.298 5.36958 20.8639 4.88305 23.4552 4.88305V4.88305Z" fill="#03789B"/>
<path d="M23.455 41.1169C33.5244 41.1169 41.6873 33.3157 41.6873 23.6924C41.6873 14.0692 33.5244 6.26794 23.455 6.26794C13.3856 6.26794 5.22278 14.0692 5.22278 23.6924C5.22278 33.3157 13.3856 41.1169 23.455 41.1169Z" fill="#E6E1CE"/>
<path d="M27.6596 17.2853C29.5612 15.148 31.5527 13.5869 33.6119 12.1108C33.5363 13.24 33.4721 14.3806 33.4741 15.466C33.4767 16.8877 33.59 18.3054 33.9735 19.5808C31.4763 20.9317 28.9649 23.2517 26.6172 25.8821C24.2934 28.4858 22.0681 31.4653 20.1079 34.2818C16.7511 30.3504 13.7707 28.2676 10.9058 26.6243L15.8243 23.5512L19.1063 29.491L20.1784 31.4313L20.9234 29.3434C22.9432 23.683 25.2441 20.0002 27.6596 17.2853Z" fill="#03789B" stroke="#03789B" stroke-width="2"/>
</svg>
