<svg width="54" height="45" viewBox="0 0 54 45" fill="none" xmlns="http://www.w3.org/2000/svg">
<path d="M43.2816 0C42.6438 0 42.1301 0.698592 42.1301 1.56604V44.0695H53.9792V1.56604C53.9792 0.698592 53.4655 0 52.8277 0H43.2816Z" fill="#03789B"/>
<path d="M29.2376 11.6378C28.5997 11.6378 28.0861 12.16 28.0861 12.8085V44.0695H39.9351V12.8085C39.9351 12.16 39.4218 11.6378 38.784 11.6378H29.2376Z" fill="#E6E1CE"/>
<path d="M14.5439 18.862C14.5439 18.6896 14.7435 18.4041 15.1951 18.4041H24.7415C25.1933 18.4041 25.393 18.6898 25.393 18.862V43.5695H14.5439V18.862Z" fill="#03789B" stroke="#E6E1CE"/>
<path d="M1.15151 22.3801C0.513647 22.3801 0 22.7397 0 23.1861V44.0695H11.8491V23.1861C11.8491 22.7397 11.3354 22.3801 10.6976 22.3801H1.15151Z" fill="#03789B"/>
</svg>
