<svg width="32" height="52" viewBox="0 0 32 52" fill="none" xmlns="http://www.w3.org/2000/svg">
<path d="M2.07815 7.33459C1.28708 7.33459 0.650391 7.97129 0.650391 8.76235V49.9766C0.650391 50.7677 1.28708 51.4051 2.07815 51.4051H30.5717C31.3627 51.4051 31.9994 50.7677 31.9994 49.9766V8.76235C31.9994 7.97129 31.3627 7.33459 30.5717 7.33459H2.07815ZM5.27429 15.6667H7.61134C8.4024 15.6667 9.0391 16.3033 9.0391 17.0944V19.4315C9.0391 20.2225 8.4024 20.8592 7.61134 20.8592H5.27429C4.48323 20.8592 3.84653 20.2225 3.84653 19.4315V17.0944C3.84653 16.3033 4.48323 15.6667 5.27429 15.6667ZM12.9746 17.2077H27.3748C28.1659 17.2077 28.8026 17.6785 28.8026 18.2633C28.8026 18.8481 28.1659 19.3189 27.3748 19.3189H12.9746C12.1835 19.3189 11.5461 18.8481 11.5461 18.2633C11.5461 17.6785 12.1835 17.2077 12.9746 17.2077ZM5.27429 23.0715H7.61134C8.4024 23.0715 9.0391 23.7082 9.0391 24.4993V26.8356C9.0391 27.6266 8.4024 28.2633 7.61134 28.2633H5.27429C4.48323 28.2633 3.84653 27.6266 3.84653 26.8356V24.4993C3.84653 23.7082 4.48323 23.0715 5.27429 23.0715ZM12.9746 24.6118H27.3748C28.1659 24.6118 28.8026 25.0826 28.8026 25.6674C28.8026 26.2522 28.1659 26.723 27.3748 26.723H12.9746C12.1835 26.723 11.5461 26.2522 11.5461 25.6674C11.5461 25.0826 12.1835 24.6118 12.9746 24.6118ZM5.27429 30.4756H7.61134C8.4024 30.4756 9.0391 31.1123 9.0391 31.9034V34.2404C9.0391 35.0315 8.4024 35.6682 7.61134 35.6682H5.27429C4.48323 35.6682 3.84653 35.0315 3.84653 34.2404V31.9034C3.84653 31.1123 4.48323 30.4756 5.27429 30.4756ZM12.9746 32.016H27.3748C28.1659 32.016 28.8026 32.4868 28.8026 33.0715C28.8026 33.6563 28.1659 34.1271 27.3748 34.1271H12.9746C12.1835 34.1271 11.5461 33.6563 11.5461 33.0715C11.5461 32.4868 12.1835 32.016 12.9746 32.016ZM5.27429 37.8797H7.61134C8.4024 37.8797 9.0391 38.5172 9.0391 39.3082V41.6446C9.0391 42.4356 8.4024 43.0723 7.61134 43.0723H5.27429C4.48323 43.0723 3.84653 42.4356 3.84653 41.6446V39.3082C3.84653 38.5172 4.48323 37.8797 5.27429 37.8797V37.8797ZM12.9746 39.4208H27.3748C28.1659 39.4208 28.8026 39.8916 28.8026 40.4764C28.8026 41.0612 28.1659 41.532 27.3748 41.532H12.9746C12.1835 41.532 11.5461 41.0612 11.5461 40.4764C11.5461 39.8916 12.1835 39.4208 12.9746 39.4208Z" fill="#03789B"/>
<path d="M16.3252 1.303e-08C15.3268 0.000105856 14.3693 0.396812 13.6634 1.10285C12.9575 1.80888 12.561 2.76642 12.5611 3.76481C12.5627 4.07127 12.6017 4.37638 12.6772 4.67338H9.96514C9.17408 4.67338 8.53738 5.31008 8.53738 6.10114V9.73544C8.53738 10.5265 9.17408 11.1639 9.96514 11.1639H22.6866C23.4777 11.1639 24.1144 10.5265 24.1144 9.73544V6.10114C24.1144 5.31008 23.4777 4.67338 22.6866 4.67338H19.9752C20.0503 4.37632 20.0888 4.07121 20.09 3.76481C20.09 3.2704 19.9926 2.78082 19.8035 2.32403C19.6143 1.86724 19.337 1.4522 18.9874 1.1026C18.6378 0.752993 18.2227 0.47568 17.7659 0.286495C17.3092 0.0973104 16.8196 -4.11213e-05 16.3252 1.303e-08V1.303e-08ZM16.3252 1.94766C16.5638 1.94759 16.8002 1.99454 17.0208 2.08583C17.2413 2.17712 17.4417 2.31095 17.6105 2.4797C17.7793 2.64844 17.9132 2.84878 18.0046 3.06928C18.096 3.28978 18.143 3.52612 18.143 3.76481C18.1425 4.08395 18.0579 4.39731 17.8978 4.67338H14.7547C14.5941 4.39745 14.509 4.08408 14.508 3.76481C14.5081 3.28289 14.6995 2.82072 15.0403 2.47995C15.3811 2.13918 15.8432 1.94771 16.3252 1.94766V1.94766Z" fill="#E6E1CE"/>
<path d="M10.4501 13.1952C10.15 13.2041 9.86521 13.3295 9.65597 13.5448L6.28162 16.9192L5.10263 15.7104C4.99795 15.5962 4.87139 15.5043 4.73047 15.44C4.58955 15.3757 4.43714 15.3404 4.28231 15.3363C4.12748 15.3321 3.97339 15.359 3.8292 15.4156C3.68501 15.4722 3.55368 15.5571 3.44298 15.6655C3.33228 15.7738 3.2445 15.9033 3.18484 16.0462C3.12519 16.1891 3.09487 16.3426 3.09572 16.4975C3.09657 16.6524 3.12855 16.8055 3.18976 16.9478C3.25097 17.0901 3.34017 17.2186 3.45204 17.3257L5.44684 19.3693C5.55377 19.4788 5.68139 19.566 5.82231 19.6258C5.96322 19.6856 6.11462 19.7167 6.26769 19.7175C6.42076 19.7183 6.57245 19.6886 6.71396 19.6303C6.85547 19.5719 6.98397 19.4861 7.09201 19.3776L11.2903 15.1793C11.4575 15.017 11.5718 14.808 11.618 14.5796C11.6643 14.3512 11.6405 14.1142 11.5496 13.8996C11.4587 13.6851 11.3051 13.503 11.1089 13.3773C10.9126 13.2516 10.683 13.1882 10.4501 13.1954V13.1952Z" fill="#E6E1CE"/>
<path d="M10.4501 20.5384C10.15 20.5474 9.86521 20.6728 9.65597 20.8881L6.28162 24.2624L5.10263 23.0536C4.99795 22.9395 4.87139 22.8475 4.73047 22.7833C4.58955 22.719 4.43714 22.6837 4.28231 22.6795C4.12748 22.6753 3.97339 22.7023 3.8292 22.7589C3.68501 22.8154 3.55368 22.9004 3.44298 23.0087C3.33228 23.1171 3.2445 23.2465 3.18484 23.3895C3.12519 23.5324 3.09487 23.6859 3.09572 23.8408C3.09657 23.9957 3.12855 24.1488 3.18976 24.2911C3.25097 24.4333 3.34017 24.5619 3.45204 24.669L5.44684 26.7126C5.55377 26.8221 5.68139 26.9093 5.82231 26.9691C5.96322 27.0288 6.11462 27.06 6.26769 27.0608C6.42076 27.0616 6.57245 27.0319 6.71396 26.9736C6.85547 26.9152 6.98397 26.8293 7.09201 26.7209L11.2903 22.5226C11.4575 22.3603 11.5718 22.1513 11.618 21.9229C11.6643 21.6945 11.6405 21.4575 11.5496 21.2429C11.4587 21.0283 11.3051 20.8462 11.1089 20.7206C10.9126 20.5949 10.683 20.5315 10.4501 20.5386V20.5384Z" fill="#E6E1CE"/>
<path d="M10.4501 27.8817C10.15 27.8906 9.86521 28.016 9.65597 28.2313L6.28162 31.6057L5.10263 30.3969C4.99795 30.2827 4.87139 30.1908 4.73047 30.1265C4.58955 30.0622 4.43714 30.027 4.28231 30.0228C4.12748 30.0186 3.97339 30.0456 3.8292 30.1021C3.68501 30.1587 3.55368 30.2437 3.44298 30.352C3.33228 30.4603 3.2445 30.5898 3.18484 30.7327C3.12519 30.8757 3.09487 31.0292 3.09572 31.184C3.09657 31.3389 3.12855 31.492 3.18976 31.6343C3.25097 31.7766 3.34017 31.9051 3.45204 32.0122L5.44684 34.0558C5.55377 34.1653 5.68139 34.2525 5.82231 34.3123C5.96322 34.3721 6.11462 34.4033 6.26769 34.404C6.42076 34.4048 6.57245 34.3752 6.71396 34.3168C6.85547 34.2585 6.98397 34.1726 7.09201 34.0641L11.2903 29.8658C11.4575 29.7036 11.5718 29.4945 11.618 29.2661C11.6643 29.0378 11.6405 28.8007 11.5496 28.5862C11.4587 28.3716 11.3051 28.1895 11.1089 28.0638C10.9126 27.9381 10.683 27.8747 10.4501 27.8819V27.8817Z" fill="#E6E1CE"/>
<path d="M10.4501 35.2248C10.15 35.2338 9.86521 35.3592 9.65597 35.5745L6.28162 38.9488L5.10263 37.74C4.99795 37.6259 4.87139 37.5339 4.73047 37.4696C4.58955 37.4054 4.43714 37.3701 4.28231 37.3659C4.12748 37.3617 3.97339 37.3887 3.8292 37.4453C3.68501 37.5018 3.55368 37.5868 3.44298 37.6951C3.33228 37.8034 3.2445 37.9329 3.18484 38.0759C3.12519 38.2188 3.09487 38.3723 3.09572 38.5272C3.09657 38.682 3.12855 38.8352 3.18976 38.9775C3.25097 39.1197 3.34017 39.2483 3.45204 39.3554L5.44684 41.399C5.55377 41.5085 5.68139 41.5957 5.82231 41.6554C5.96322 41.7152 6.11462 41.7464 6.26769 41.7472C6.42076 41.748 6.57245 41.7183 6.71396 41.66C6.85547 41.6016 6.98397 41.5157 7.09201 41.4073L11.2903 37.209C11.4575 37.0467 11.5718 36.8376 11.618 36.6093C11.6643 36.3809 11.6405 36.1439 11.5496 35.9293C11.4587 35.7147 11.3051 35.5327 11.1089 35.407C10.9126 35.2813 10.683 35.2179 10.4501 35.225V35.2248Z" fill="#E6E1CE"/>
</svg>
